<svg width="32" height="32" viewBox="0 0 32 32" fill="#e4ebee" xmlns="http://www.w3.org/2000/svg">
<path d="M19.525 16.0005L30.275 5.27546C30.7458 4.8047 31.0102 4.16622 31.0102 3.50046C31.0102 2.83471 30.7458 2.19622 30.275 1.72546C29.8042 1.2547 29.1658 0.990234 28.5 0.990234C27.8342 0.990234 27.1958 1.2547 26.725 1.72546L16 12.4755L5.275 1.72546C4.80424 1.2547 4.16575 0.990234 3.5 0.990234C2.83425 0.990234 2.19576 1.2547 1.725 1.72546C1.25424 2.19622 0.989771 2.83471 0.989771 3.50046C0.989771 4.16622 1.25424 4.8047 1.725 5.27546L12.475 16.0005L1.725 26.7255C1.49068 26.9579 1.30469 27.2344 1.17777 27.539C1.05085 27.8437 0.985504 28.1704 0.985504 28.5005C0.985504 28.8305 1.05085 29.1573 1.17777 29.4619C1.30469 29.7666 1.49068 30.0431 1.725 30.2755C1.95741 30.5098 2.23391 30.6958 2.53856 30.8227C2.84321 30.9496 3.16997 31.015 3.5 31.015C3.83003 31.015 4.15679 30.9496 4.46144 30.8227C4.76609 30.6958 5.04259 30.5098 5.275 30.2755L16 19.5255L26.725 30.2755C26.9574 30.5098 27.2339 30.6958 27.5386 30.8227C27.8432 30.9496 28.17 31.015 28.5 31.015C28.83 31.015 29.1568 30.9496 29.4614 30.8227C29.7661 30.6958 30.0426 30.5098 30.275 30.2755C30.5093 30.0431 30.6953 29.7666 30.8222 29.4619C30.9492 29.1573 31.0145 28.8305 31.0145 28.5005C31.0145 28.1704 30.9492 27.8437 30.8222 27.539C30.6953 27.2344 30.5093 26.9579 30.275 26.7255L19.525 16.0005Z" fill="white"/>
</svg>
