<svg width="89" height="89" viewBox="0 0 89 89" fill="none" xmlns="http://www.w3.org/2000/svg">
<path d="M44.5 77.875L51.9167 70.4583M61.1875 70.4583C63.6463 70.4583 66.0043 69.4816 67.743 67.743C69.4816 66.0043 70.4583 63.6463 70.4583 61.1875C70.4583 58.7287 69.4816 56.3706 67.743 54.632C66.0043 52.8934 63.6463 51.9167 61.1875 51.9167C58.7287 51.9167 56.3706 52.8934 54.632 54.632C52.8934 56.3706 51.9167 58.7287 51.9167 61.1875C51.9167 63.6463 52.8934 66.0043 54.632 67.743C56.3706 69.4816 58.7287 70.4583 61.1875 70.4583V70.4583ZM37.0833 18.5417L44.5 11.125L37.0833 18.5417ZM27.8125 37.0833C30.2713 37.0833 32.6294 36.1066 34.368 34.368C36.1066 32.6294 37.0833 30.2713 37.0833 27.8125C37.0833 25.3537 36.1066 22.9956 34.368 21.257C32.6294 19.5184 30.2713 18.5417 27.8125 18.5417C25.3537 18.5417 22.9956 19.5184 21.257 21.257C19.5184 22.9956 18.5417 25.3537 18.5417 27.8125C18.5417 30.2713 19.5184 32.6294 21.257 34.368C22.9956 36.1066 25.3537 37.0833 27.8125 37.0833V37.0833ZM29.6667 59.3333L59.3333 29.6667L29.6667 59.3333ZM20.3958 77.875C22.8546 77.875 25.2127 76.8983 26.9513 75.1596C28.6899 73.421 29.6667 71.0629 29.6667 68.6042C29.6667 66.1454 28.6899 63.7873 26.9513 62.0487C25.2127 60.3101 22.8546 59.3333 20.3958 59.3333C17.9371 59.3333 15.579 60.3101 13.8404 62.0487C12.1017 63.7873 11.125 66.1454 11.125 68.6042C11.125 71.0629 12.1017 73.421 13.8404 75.1596C15.579 76.8983 17.9371 77.875 20.3958 77.875V77.875ZM68.6042 29.6667C71.0629 29.6667 73.421 28.6899 75.1596 26.9513C76.8983 25.2127 77.875 22.8546 77.875 20.3958C77.875 17.9371 76.8983 15.579 75.1596 13.8404C73.421 12.1017 71.0629 11.125 68.6042 11.125C66.1454 11.125 63.7873 12.1017 62.0487 13.8404C60.3101 15.579 59.3333 17.9371 59.3333 20.3958C59.3333 22.8546 60.3101 25.2127 62.0487 26.9513C63.7873 28.6899 66.1454 29.6667 68.6042 29.6667Z" stroke="#46C0BB" stroke-width="2" stroke-linecap="round" stroke-linejoin="round"/>
</svg>
