<?xml version="1.0" standalone="no"?>
<!DOCTYPE svg PUBLIC "-//W3C//DTD SVG 20010904//EN"
 "http://www.w3.org/TR/2001/REC-SVG-20010904/DTD/svg10.dtd">
<svg version="1.0" xmlns="http://www.w3.org/2000/svg"
 width="591.000000pt" height="591.000000pt" viewBox="0 0 591.000000 591.000000"
 preserveAspectRatio="xMidYMid meet">
<metadata>
Created by potrace 1.14, written by Peter Selinger 2001-2017
</metadata>
<g transform="translate(0.000000,591.000000) scale(0.100000,-0.100000)"
fill="#000000" stroke="none">
<path d="M2847 5744 c-1 -1 -45 -5 -97 -8 -87 -6 -187 -18 -250 -31 -152 -29
-196 -39 -285 -65 -38 -11 -77 -22 -85 -24 -31 -8 -207 -75 -265 -101 -318
-141 -585 -325 -835 -575 -247 -246 -421 -498 -566 -820 -49 -109 -80 -184
-89 -220 -2 -8 -10 -35 -18 -60 -19 -56 -64 -224 -72 -265 -2 -16 -7 -41 -10
-55 -2 -13 -7 -42 -10 -65 -3 -22 -8 -47 -10 -55 -2 -8 -7 -42 -10 -75 -3 -33
-7 -76 -10 -95 -6 -40 -7 -448 -1 -458 2 -4 7 -36 10 -72 23 -221 87 -483 168
-690 100 -253 272 -546 440 -749 96 -116 276 -294 390 -386 189 -153 460 -313
673 -400 50 -20 99 -40 110 -45 100 -43 385 -114 538 -135 27 -4 57 -8 68 -10
89 -17 401 -24 554 -11 95 7 109 9 245 31 418 67 832 247 1195 519 225 169
542 511 649 702 9 16 31 52 48 79 128 207 265 547 313 775 57 271 68 379 68
625 0 156 -7 292 -18 355 -3 14 -7 41 -10 60 -45 294 -152 622 -282 860 -66
121 -87 155 -154 255 -403 595 -1028 1015 -1719 1154 -84 17 -95 19 -147 26
-26 4 -59 8 -73 10 -94 13 -442 28 -453 19z"/>
</g>
</svg>
