<svg width="106" height="48" viewBox="0 0 106 48" fill="none" xmlns="http://www.w3.org/2000/svg">
<path fill-rule="evenodd" clip-rule="evenodd" d="M11.5084 30.207H14.4953L18.2288 41.4041L21.2156 30.207H24.9491L19.7221 46.6345H16.7354L13.0019 35.4339L9.26839 46.6345H6.28162L1.05469 30.207H4.78818L7.77494 41.4041L11.5084 30.207ZM31.1253 44.1881C33.5697 44.1881 35.4029 42.8127 35.4029 40.7945V39.7859C34.456 39.4191 33.1418 39.1437 31.7056 39.1437C29.3832 39.1437 28.0083 40.091 28.0083 41.742V41.8039C28.0083 43.3322 29.3832 44.1881 31.1253 44.1881ZM27.1892 31.0523C28.554 30.5596 30.0695 30.247 32.0475 30.247C36.814 30.247 39.1364 32.6172 39.1364 36.9273V46.6345H35.4029V44.6475C34.3027 45.961 32.6894 46.9703 30.2446 46.9703C27.1892 46.9703 24.5005 45.2279 24.5005 41.987V41.9265C24.5005 38.4407 27.2815 36.7283 31.0395 36.7283C32.995 36.7283 34.1503 37.0037 35.4029 37.4009V37.0037C35.4029 34.7718 34.0948 33.5488 31.5282 33.5488C29.8552 33.5488 28.537 33.894 27.1892 34.4315V31.0523ZM41.3765 46.6345V24.2334H45.11V46.6345H41.3765ZM47.3501 46.6345V24.2334H51.0836L51.1582 46.6345H47.3501ZM59.4999 44.1881C61.9443 44.1881 63.7775 42.8127 63.7775 40.7945V39.7859C62.8306 39.4191 61.5164 39.1437 60.0802 39.1437C57.7578 39.1437 56.3829 40.091 56.3829 41.742V41.8039C56.3829 43.3322 57.7578 44.1881 59.4999 44.1881ZM55.5638 31.0523C56.9286 30.5596 58.4441 30.247 60.4221 30.247C65.1886 30.247 67.511 32.6172 67.511 36.9273V46.6345H63.7775V44.6475C62.6773 45.961 61.064 46.9703 58.6192 46.9703C55.5638 46.9703 52.8751 45.2279 52.8751 41.987V41.9265C52.8751 38.4407 55.6561 36.7283 59.4141 36.7283C61.3696 36.7283 62.5248 37.0037 63.7775 37.4009V37.0037C63.7775 34.7718 62.4695 33.5488 59.9028 33.5488C58.2298 33.5488 56.9115 33.894 55.5638 34.4315V31.0523ZM69.7511 46.6345V30.207H73.4845V33.845C74.4929 31.4299 76.3114 29.7788 79.1529 29.9012V33.8146H78.9392C75.7006 33.8146 73.4845 35.9235 73.4845 40.2039V46.6345H69.7511ZM105.592 36.0461V46.6345H101.859V37.389C101.859 34.8209 100.704 33.2337 98.6264 33.2337C96.6095 33.2337 95.139 34.79 95.139 37.389V46.6345H91.4047V37.1471C91.4047 34.6395 90.2537 33.2337 88.2064 33.2337C86.1604 33.2337 84.6846 34.8816 84.6846 37.389V46.6345H80.9515V30.207H84.6846V32.6525C85.7248 31.2155 87.1992 29.8703 89.6742 29.8703C91.9961 29.8703 93.6157 31.0015 94.4711 32.713C95.7845 31.0015 97.4952 29.8703 99.9398 29.8703C103.454 29.8703 105.592 32.1025 105.592 36.0461Z" fill="white"/>
<path d="M56.2305 8.43107L76.0922 0.000244141L76.0922 11.9937L94.4366 4.20692L94.4366 13.8294L104.23 9.67213V16.5006L94.4366 20.6578L94.4366 17.0103L76.0732 24.8051V19.1879L56.2305 27.6107V8.43107Z" fill="#FC7303"/>
</svg>
